<svg width="270" height="25" viewBox="0 0 270 25" fill="none" xmlns="http://www.w3.org/2000/svg">
<path fill-rule="evenodd" clip-rule="evenodd" d="M265.958 15.9477V19.8693H249.654V0H265.958V4.05229H270V15.9477H265.958ZM261.781 4.183H257.739V16.0784H261.781V4.183ZM225.132 0.130717H241.435V4.183H233.351V8.10457H241.435V12.0261H233.351V15.9477H241.435V19.8693H225.132V0.130717ZM212.871 20H204.652V4.183H200.61V0.130717H216.913V4.183H212.871V20ZM184.306 0.130717H192.525V20H184.306V0.130717ZM167.868 15.9477H163.826V12.0261H159.784V20H151.565V0.130717H159.784V4.183H163.826V8.10457H167.868V0.130717H176.087V20H167.868V15.9477ZM139.303 20H127.042V16.0784H123V0.261434H131.219V16.0784H135.261V0.261434H143.48V16.0784H139.438V20H139.303Z" fill="white"/>
<path fill-rule="evenodd" clip-rule="evenodd" d="M97.7335 25V20.9016H114V25H97.7335ZM73.2665 20.9016V16.8033H85.5V20.9016H73.2665ZM85.5 12.5683H89.533V16.6667H85.5V12.5683ZM77.434 8.46994H85.6344V12.5683H77.434V8.46994ZM73.2665 4.37158H77.2995V8.46994H73.2665V4.37158ZM89.6674 0.13661V4.37158H77.434V0.13661H89.6674ZM57 16.6667V8.33333H61.033V16.6667H57ZM53.1014 20.9016V16.8033H57V20.9016H53.1014ZM48.934 8.46994H53.1014V16.8033H48.934V8.46994ZM44.7665 0.13661H48.7995V8.46994H44.7665V0.13661ZM61.1675 0.13661H65.2005V8.46994H61.1675V0.13661ZM24.467 0.13661H36.7005V4.37158H28.6344V8.46994H36.7005V12.5683H28.6344V16.6667H36.7005V20.765H24.467V0.13661ZM12.2335 4.37158H16.2665V16.8033H12.2335V4.37158ZM4.03302 16.6667H12.2335V20.765H0V0H12.2335V4.23497H4.03302V16.6667Z" fill="#F50D5A"/>
</svg>
